<svg width="31" height="31" viewBox="0 0 31 31" fill="none" xmlns="http://www.w3.org/2000/svg">
<path d="M15.5 29.2754C15.0586 29.2754 14.6332 29.1155 14.3016 28.825C13.0492 27.73 11.8419 26.7009 10.7766 25.7932L10.7712 25.7885C7.64805 23.127 4.95112 20.8286 3.07464 18.5645C0.977026 16.0333 0 13.6335 0 11.0117C0 8.4645 0.873434 6.11452 2.45924 4.39438C4.06396 2.65389 6.26588 1.69531 8.66008 1.69531C10.4495 1.69531 12.0883 2.26105 13.5308 3.37667C14.2588 3.9398 14.9186 4.629 15.5 5.4329C16.0816 4.629 16.7412 3.9398 17.4694 3.37667C18.9119 2.26105 20.5507 1.69531 22.3401 1.69531C24.7341 1.69531 26.9362 2.65389 28.5409 4.39438C30.1267 6.11452 30.9999 8.4645 30.9999 11.0117C30.9999 13.6335 30.0232 16.0333 27.9255 18.5642C26.0491 20.8286 23.3524 23.1268 20.2297 25.788C19.1626 26.6972 17.9533 27.7279 16.6981 28.8255C16.3668 29.1155 15.9411 29.2754 15.5 29.2754ZM8.66008 3.51125C6.77911 3.51125 5.05116 4.26193 3.79411 5.62518C2.51837 7.00901 1.81569 8.92191 1.81569 11.0117C1.81569 13.2167 2.6352 15.1888 4.47266 17.4058C6.24861 19.5488 8.8902 21.7999 11.9488 24.4065L11.9544 24.4113C13.0237 25.3225 14.2358 26.3556 15.4974 27.4587C16.7665 26.3535 17.9805 25.3188 19.0519 24.4061C22.1102 21.7995 24.7516 19.5488 26.5275 17.4058C28.3647 15.1888 29.1842 13.2167 29.1842 11.0117C29.1842 8.92191 28.4816 7.00901 27.2058 5.62518C25.949 4.26193 24.2208 3.51125 22.3401 3.51125C20.9622 3.51125 19.6971 3.94926 18.58 4.813C17.5846 5.58308 16.8911 6.55656 16.4846 7.23772C16.2755 7.58799 15.9075 7.79707 15.5 7.79707C15.0925 7.79707 14.7245 7.58799 14.5154 7.23772C14.1091 6.55656 13.4156 5.58308 12.4199 4.813C11.3028 3.94926 10.0378 3.51125 8.66008 3.51125Z" fill="black"/>
</svg>
